<?xml version="1.0" encoding="utf-8"?>
<!-- Generator: Adobe Illustrator 16.0.0, SVG Export Plug-In . SVG Version: 6.00 Build 0)  -->
<!DOCTYPE svg PUBLIC "-//W3C//DTD SVG 1.1//EN" "http://www.w3.org/Graphics/SVG/1.1/DTD/svg11.dtd">
<svg version="1.1" id="Lager_1" xmlns="http://www.w3.org/2000/svg" xmlns:xlink="http://www.w3.org/1999/xlink" x="0px" y="0px"
	 width="595px" height="842px" viewBox="0 0 595 842" enable-background="new 0 0 595 842" xml:space="preserve">
<g id="Lager_4">
	<path fill="none" stroke="#D3A973" stroke-width="0.4252" d="M495.008,364.77"/>
	<path fill="none" stroke="#D3A973" stroke-width="0.4252" d="M495.008,259.587"/>
	<path fill="#D3A973" d="M61.11,200.22"/>
	<path fill="none" stroke="#D3A973" stroke-width="0.4252" d="M70.218,261.5c-0.726,1.214-0.513,2.799-0.513,4.309"/>
	<path fill="#379225" stroke="#FDBB58" stroke-width="0.4252" d="M458.902,226.923c0,0,12.6,39.548,23.217,58.171
		c8.025,19.488,3.724,50.45,3.724,50.45s-22.066-20.925-28.95-47.864C450.015,260.736,458.902,226.923,458.902,226.923z"/>
	<path fill="#379225" stroke="#FDBB58" stroke-width="0.4252" d="M453.456,320.054c0,0,18.044,40.409,18.622,62.495
		c0.581,22.066-16.63,47.287-16.63,47.287s-1.992-54.457-5.153-71.083C447.144,342.13,453.456,320.054,453.456,320.054z"/>
	<path fill="#379225" stroke="#FDBB58" stroke-width="0.4252" d="M154.593,391.942c0,0,9.872,22.732,28.109,41.27
		c18.256,18.545,14.66,12.267,28.719,27.219c14.05,14.953,6.875,16.457,6.875,16.457s-30.498-8.388-48.454-26.914
		C151.895,431.418,154.593,391.942,154.593,391.942z"/>
	<path fill="#379225" stroke="#FDBB58" stroke-width="0.4252" d="M63.468,335.544c0.397,0.257,7.455,18.444,16.439,33.239
		c7.812,12.87,16.244,23.667,20.246,29.426c8.646,12.391,24.464,46.245,24.464,46.245s-14.368,1.474-31.725-16.815
		C56.313,389.069,63.468,335.544,63.468,335.544z"/>
	<path fill="#379225" stroke="#FDBB58" stroke-width="0.4252" d="M136.037,330.55c2.708-5.396,4.438-12.879,4.438-12.879
		c2.689,4.98,1.915,30.565,3.443,40.505c1.526,9.936-3.723,71.362-3.723,71.362s-16.912-4.584-16.573-45.221
		C123.786,362.899,130.361,341.907,136.037,330.55z"/>
	<path fill="#379225" stroke="#FDBB58" stroke-width="0.4252" d="M82.004,443.657c0,0,10.666,8.723,23.506,14.555
		c11.198,5.091,17.89,5.564,26.378,8.03c5.146,1.492,20.036,8.089,34.396,13.379c18.729,6.901,37.062,12.611,37.062,12.611
		s-37.566,8.013-64.072,0.943c-26.492-7.059-49.922-41.211-56.294-48.328"/>
	<path fill="#379225" stroke="#FDBB58" stroke-width="0.4252" d="M157.726,508.692c0,0,54.518,1.967,69.253,2.7
		c14.736,0.734,50.532,10.646,50.532,10.646s-15.17,12.929-54.208,11.942C184.259,533.01,157.726,508.692,157.726,508.692z"/>
	<path fill="#379225" stroke="#FDBB58" stroke-width="0.4252" d="M213.199,445.182c0,0,22.732,1.495,43.968,25.719
		c25.526,29.129,26.02,47.257,26.02,47.257c-19.745-15.268-32.219-25.453-42.776-36.487
		C231.755,472.6,213.199,445.182,213.199,445.182z"/>
	<path fill="#379225" stroke="#FDBB58" stroke-width="0.4252" d="M376.932,447.874c0,0-18.158,0-37.815,21.11
		c-19.629,21.121-26.271,44.695-24.794,44.449c1.479-0.236,18.169-11.289,30.45-23.328
		C357.039,478.072,376.932,447.874,376.932,447.874z"/>
	<path fill="#379225" stroke="#FDBB58" stroke-width="0.4252" d="M315.059,521.533c0-1.959,42.971-10.072,60.413-11.301
		c17.436-1.235,64.14-2.254,64.14-2.254s-26.068,21.651-63.405,26.316C338.885,538.98,315.059,523.504,315.059,521.533z"/>
	<path fill="#379225" stroke="#FDBB58" stroke-width="0.4252" d="M438.711,393.735c0,0,1.787,29.614-13.159,52.049
		c-9.575,14.351-49.644,29.005-49.644,29.005s-0.214-6.12,5.074-12.271c8.626-10.018,21.737-16.496,29.244-27.079
		C416.868,426.031,438.711,393.735,438.711,393.735z"/>
	<path fill="#379225" stroke="#FDBB58" stroke-width="0.4252" d="M382.096,491.165c0,0,41.49-9.806,72.066-22.891
		c36.202-9.546,57.477-24.398,57.477-24.398s-20.993,32.03-46.5,44.357C439.63,500.562,382.096,491.165,382.096,491.165z"/>
	<path fill="#379225" stroke="#FDBB58" stroke-width="0.4252" d="M529.69,338.977c0,0-13.934,27.569-30.04,50.745
		c-16.1,23.192-28.72,54.731-28.72,54.731s33.62-7.085,47.863-41.459C533.057,368.614,529.69,338.977,529.69,338.977z"/>
	<path fill="#379225" stroke="#FDBB58" stroke-width="0.4252" d="M492.716,148.672c0,0,8.023,32.964,11.101,59.346
		c3.084,26.659-9.091,53.284-9.091,53.284s-18.623-29.807-17.481-60.184C478.096,178.275,492.716,148.672,492.716,148.672z"/>
	<path fill="#379225" stroke="#FDBB58" stroke-width="0.4252" d="M531.983,201.693c0,0,4.835,34.159-0.57,63.626
		c-5.403,29.477-25.257,47.579-25.257,47.579s0.842-44.025,4.621-56.159C514.781,243.825,531.983,201.693,531.983,201.693z"/>
	<path fill="none" stroke="#FDBB58" stroke-width="0.4252" d="M63.855,338.214c0,2.3-4.583,17.965,22.925,65.737
		c27.513,47.768,59.42,49.093,59.42,49.093"/>
	<path fill="#3E8940" stroke="#FDBB58" stroke-width="0.4252" d="M86.79,391.328c0.29,2.446-0.917,4.703-1.538,6.88"/>
	<path fill="#3E8940" stroke="#FDBB58" stroke-width="0.4252" d="M91.374,398.208c-0.31,2.33-0.841,4.128-1.914,6.119"/>
	<path fill="#3E8940" stroke="#FDBB58" stroke-width="0.4252" d="M97.098,418.083c1.557,0.324,1.904-5.924,1.904-8.022"/>
	<path fill="#3E8940" stroke="#FDBB58" stroke-width="0.4252" d="M103.229,415.409c0.337,3.622-1.867,5.594-1.538,9.169"/>
	<path fill="#004A2A" stroke="#FDBB58" stroke-width="0.4252" d="M94.043,403.182c0.811,2.307,0.338,7.041-1.52,7.639"/>
	<path fill="none" stroke="#FDBB58" stroke-width="0.4252" d="M139.529,322.167c0,0-8.799,34.022-9.179,50.064
		c-3.44,22.545,10.125,54.744,10.125,54.744l-3.248,17.1"/>
	<path fill="none" stroke="#FDBB58" stroke-width="0.4252" d="M137.227,358.467c-1.296,3.166-3.646,4.93-4.97,7.255"/>
	<path fill="none" stroke="#FDBB58" stroke-width="0.4252" d="M136.849,368.793c-1.605,1.833-3.064,3.641-4.961,4.97"/>
	<path fill="none" stroke="#FDBB58" stroke-width="0.4252" d="M138.765,377.201c-2.282,2.117-5.01,4.196-8.422,4.574"/>
	<path fill="none" stroke="#FDBB58" stroke-width="0.4252" d="M134.935,385.982c-0.126,1.952-2.04,3.087-3.441,4.196"/>
	<path fill="none" stroke="#FDBB58" stroke-width="0.4252" d="M135.313,393.238c0.279,2.389-1.383,3.636-2.773,5.158
		c-0.476-0.56-0.581-1.267-0.281-2.088"/>
	<path fill="none" stroke="#FDBB58" stroke-width="0.4252" d="M86.404,447.12c0,0,28.274,23.696,57.707,34.027
		c29.427,10.304,77.192,12.028,77.192,12.028"/>
	<path fill="none" stroke="#FDBB58" stroke-width="0.4252" d="M128.824,469.293c1.025,1.643,1.974,3.199,2.678,4.962"/>
	<path fill="none" stroke="#FDBB58" stroke-width="0.4252" d="M135.699,471.58c1.005,2.199,1.972,4.089,1.913,6.492"/>
	<path fill="none" stroke="#FDBB58" stroke-width="0.4252" d="M142.583,474.65c1.161,1.938,1.886,4.939,2.292,7.257"/>
	<path fill="none" stroke="#FDBB58" stroke-width="0.4252" d="M149.458,476.174c0.242,2.159,0.773,4.297,0.764,6.497"/>
	<path fill="none" stroke="#FDBB58" stroke-width="0.4252" d="M157.484,478.46c0.376,2.396,0.794,5.261,2.292,7.261"/>
	<path fill="none" stroke="#FDBB58" stroke-width="0.4252" d="M156.334,397.072c0,0,2.291,21.77,19.88,42.418
		c17.571,20.635,30.188,26.365,38.591,33.25c8.412,6.87,12.223,22.732,12.223,22.732"/>
	<path fill="none" stroke="#FDBB58" stroke-width="0.4252" d="M181.562,446.371c2.389-0.681,1.895-4.553,1.904-6.881"/>
	<path fill="none" stroke="#FDBB58" stroke-width="0.4252" d="M177.355,441.015c1.586-0.952,3.045-4.793,1.916-6.87"/>
	<path fill="none" stroke="#FDBB58" stroke-width="0.4252" d="M175.063,428.788c0.098,2.402,0.735,5.414,0,7.255"/>
	<path fill="none" stroke="#FDBB58" stroke-width="0.4252" d="M193.398,457.438c0-2.412,0-4.84,0-7.258"/>
	<path fill="none" stroke="#FDBB58" stroke-width="0.4252" d="M188.05,444.453c0.792,1.76,0.378,4.996,0.378,7.256"/>
	<polyline fill="none" stroke="#FDBB58" stroke-width="0.4252" points="216.196,446.677 254.19,480.471 280.49,515.466 	"/>
	<path fill="none" stroke="#FDBB58" stroke-width="0.4252" d="M247.003,464.918c0,1.823,0.794,5.396-0.888,6.584"/>
	<path fill="none" stroke="#FDBB58" stroke-width="0.4252" d="M250.892,469.399c0,2.695,0,5.39,0,8.071"/>
	<path fill="none" stroke="#FDBB58" stroke-width="0.4252" d="M255.678,472.997c0,2.89-0.251,5.912,0.299,8.672"/>
	<path fill="none" stroke="#FDBB58" stroke-width="0.4252" d="M259.575,478.372c0,2.796,0,5.584,0,8.379"/>
	<path fill="none" stroke="#FDBB58" stroke-width="0.4252" d="M264.052,485.847c0,1.944,0.02,3.854-0.29,5.726
		c-0.28,0.612-0.154-0.088-0.319-0.351"/>
	<path fill="none" stroke="#FDBB58" stroke-width="0.4252" d="M158.77,509.186c2.398,0,30.218,11.061,63.413,16.144
		c33.205,5.085,53.539-3.895,53.539-3.895"/>
	<path fill="none" stroke="#FDBB58" stroke-width="0.4252" d="M204.836,516.067c0.947,2.167,1.393,4.475,2.397,6.577"/>
	<path fill="none" stroke="#FDBB58" stroke-width="0.4252" d="M213.199,517.253c2.021,1.805,2.97,4.694,5.378,5.987"/>
	<path fill="none" stroke="#FDBB58" stroke-width="0.4252" d="M222.773,518.156c-0.066,2.627,0.251,5.444,2.099,7.172"/>
	<path fill="none" stroke="#FDBB58" stroke-width="0.4252" d="M232.055,519.058c-0.224,2.068,0.242,3.741,1.79,5.092"/>
	<path fill="none" stroke="#FDBB58" stroke-width="0.4252" d="M238.931,520.245c0.077,1.081,0.588,2.118,1.198,2.995"/>
	<path fill="#3E8940" stroke="#FDBB58" stroke-width="0.4252" d="M347.799,465.816c0.011,2.276,0.494,4.646,0.289,6.879"/>
	<path fill="#3E8940" stroke="#FDBB58" stroke-width="0.4252" d="M343.004,469.399c0,2.291,0,4.587,0,6.885"/>
	<path fill="#3E8940" stroke="#FDBB58" stroke-width="0.4252" d="M338.217,473.292c0.328,2.891,0.298,5.772,0.298,8.663"/>
	<path fill="#3E8940" stroke="#FDBB58" stroke-width="0.4252" d="M333.44,479.572c-0.021,2.663-0.222,5.622,0.6,8.077"/>
	<path fill="none" stroke="#FDBB58" stroke-width="0.4252" d="M329.254,485.847c0,2.646,0.598,6.46-0.302,8.677"/>
	<path fill="none" stroke="#FDBB58" stroke-width="0.4252" d="M313.994,520.542c0,0,29.309,8.378,58.314,4.484
		c29.011-3.89,66.401-17.049,66.401-17.049"/>
	<path fill="none" stroke="#FDBB58" stroke-width="0.4252" d="M354.974,520.542c-0.261,1.566-2.757,4.844-3.601,5.091"/>
	<path fill="none" stroke="#FDBB58" stroke-width="0.4252" d="M364.836,519.355c-0.483,3.338-1.992,4.594-4.484,6.276"/>
	<path fill="none" stroke="#FDBB58" stroke-width="0.4252" d="M372.909,517.562c0.173,2.87-1.45,5.554-2.669,7.871
		c0.03-0.765,0.214-1.494,0.57-2.185"/>
	<path fill="none" stroke="#FDBB58" stroke-width="0.4252" d="M380.984,516.662c0.185,3.17-0.742,5.295-3.035,7.229
		c-0.223-0.246-0.104-0.469,0.337-0.65"/>
	<path fill="none" stroke="#FDBB58" stroke-width="0.4252" d="M389.656,515.76c-0.298,2.731-0.918,5.622-4.042,6.009
		c0.523-0.206,1.074-0.323,1.656-0.334"/>
	<path fill="none" stroke="#FDBB58" stroke-width="0.4252" d="M438.711,395.229c0,0-1.798,19.445-19.438,42.468
		c-17.646,23.026-36.278,30.706-43.068,39.485c-5.085,6.585-7.579,19.15-7.579,19.15"/>
	<path fill="none" stroke="#FDBB58" stroke-width="0.4252" d="M418.075,431.726c0,2.196,0,4.378,0,6.585"/>
	<path fill="none" stroke="#FDBB58" stroke-width="0.4252" d="M414.18,436.214c0,2.306-0.455,5.326,0.6,7.176"/>
	<path fill="none" stroke="#FDBB58" stroke-width="0.4252" d="M409.991,439.5c0,3.289-0.048,5.755,0.893,8.081"/>
	<path fill="none" stroke="#FDBB58" stroke-width="0.4252" d="M405.808,445.182c0.173,2.569-0.707,5.507-0.301,8.067"/>
	<path fill="none" stroke="#FDBB58" stroke-width="0.4252" d="M400.73,450.558c0,2.134-0.097,4.23,0.298,6.282"/>
	<path fill="none" stroke="#FDBB58" stroke-width="0.4252" d="M454.029,323.791c0,0,4.003,30.662,8.597,47.854
		c3.752,14.031-3.513,43.15-6.297,53.376c-0.638,2.305-0.298,19.706-0.298,19.706"/>
	<path fill="none" stroke="#FDBB58" stroke-width="0.4252" d="M454.889,359.902c2.369,0.74,5.89,2.712,6.593,5.158"/>
	<path fill="none" stroke="#FDBB58" stroke-width="0.4252" d="M456.327,367.934c2.794-0.359,5.482,3.205,7.157,4.573"/>
	<path fill="none" stroke="#FDBB58" stroke-width="0.4252" d="M456.031,375.953c1.682,0.701,8.723,3.897,8.026,6.01"/>
	<path fill="none" stroke="#FDBB58" stroke-width="0.4252" d="M457.179,384.545c1.307,1.841,5.543,4.79,6.307,6.879"/>
	<path fill="none" stroke="#FDBB58" stroke-width="0.4252" d="M456.599,392.866c1.229,1.429,5.155,2.658,6.596,4.008"/>
	<path fill="none" stroke="#FDBB58" stroke-width="0.4252" d="M528.551,343.56c0,0-7.445,32.963-18.924,55.884
		c-6.16,12.319-24.601,32.934-38.697,44.145c-12.173,9.66-25.219,12.042-25.219,12.042"/>
	<path fill="none" stroke="#FDBB58" stroke-width="0.4252" d="M506.475,391.424c0.378,3.974,1.431,7.616,1.438,11.758"/>
	<path fill="none" stroke="#FDBB58" stroke-width="0.4252" d="M501.592,398.884c1.171,3.326,0.87,8.032,0.87,10.894"/>
	<path fill="none" stroke="#FDBB58" stroke-width="0.4252" d="M495.296,406.615c2.283,2.239,0.986,9.656,0.291,12.329"/>
	<path fill="none" stroke="#FDBB58" stroke-width="0.4252" d="M489.854,414.636c1.789,0.415,1.943,6.833,2.581,8.308"/>
	<path fill="none" stroke="#FDBB58" stroke-width="0.4252" d="M459.192,230.637c0,0-2.293,16.326,2.582,34.972
		c19.483,51.579,18.623,63.051,23.507,68.784c2,3.149,9.729,12.607,9.729,12.607"/>
	<path fill="none" stroke="#FDBB58" stroke-width="0.4252" d="M463.486,284.809c1.759,0.9,4.476,1.237,5.734,2.871"/>
	<path fill="none" stroke="#FDBB58" stroke-width="0.4252" d="M465.487,292.84c2.34,0.333,4.139,0.086,5.732,1.712"/>
	<path fill="none" stroke="#FDBB58" stroke-width="0.4252" d="M467.206,300.57c2.32-0.377,4.332,1.059,6.595,1.15"/>
	<path fill="none" stroke="#FDBB58" stroke-width="0.4252" d="M470.64,308.026c1.527,0,3.065,0,4.584,0"/>
	<path fill="none" stroke="#FDBB58" stroke-width="0.4252" d="M474.102,314.336c0.947,0,1.904,0,2.862,0"/>
	<path fill="none" stroke="#FDBB58" stroke-width="0.4252" d="M493.295,150.969c0,0-2.582,42.991-2.013,53.023
		c0.581,10.026,3.726,58.17,3.726,58.17"/>
	<path fill="none" stroke="#FDBB58" stroke-width="0.4252" d="M486.7,187.069c0.589,2.354,0.191,5.744,3.152,6.306"/>
	<path fill="none" stroke="#FDBB58" stroke-width="0.4252" d="M483.56,193.375c1.323,1.603,3.208,2.872,4.369,4.578
		c0.909,1.344,1.527,3.76,1.935,4.591"/>
	<path fill="none" stroke="#FDBB58" stroke-width="0.4252" d="M484.118,201.396c2.882,0.415,6.12,3.089,6.306,6.309"/>
	<path fill="none" stroke="#FDBB58" stroke-width="0.4252" d="M485.281,207.99c1.633,0.904,3.683,3.685,4.795,5.458
		c0.618,0.967,2.099,4.889,1.789,4.572"/>
	<path fill="none" stroke="#FDBB58" stroke-width="0.4252" d="M531.411,206.854c0,0,2.292,16.052-4.862,53.298
		c-7.184,37.261-21.227,55.042-21.227,55.042l-8.49,25.319"/>
	<path fill="none" stroke="#FDBB58" stroke-width="0.4252" d="M521.666,257.291c2.427,2.039,2.571,7.474,2.571,10.316"/>
	<path fill="none" stroke="#FDBB58" stroke-width="0.4252" d="M517.372,267.046c1.778,1.069,6.614,6.267,5.726,7.156"/>
	<path fill="none" stroke="#FDBB58" stroke-width="0.4252" d="M515.37,275.353c2.979,1.503,4.139,5.743,5.445,8.596"/>
	<path fill="none" stroke="#FDBB58" stroke-width="0.4252" d="M511.928,281.937c1.335,0.968,1.508,4.435,2.649,6.266
		c0.63,1.021,1.71,2.012,2.507,2.94c-0.031,0.29-0.226,0.368-0.581,0.25"/>
	<path fill="none" stroke="#FDBB58" stroke-width="0.4252" d="M510.489,292.266c0.647,2.561,1.268,5.206,3.144,7.163"/>
	<path fill="none" stroke="#FDBB58" stroke-width="0.4252" d="M390.973,491.165c0,0,9.747,2.012,45.581-6.596
		c35.815-8.597,69.36-35.247,69.36-35.247"/>
	<path fill="none" stroke="#FDBB58" stroke-width="0.4252" d="M464.906,468.519c0,2.004,0.947,4.479,0,6.02"/>
	<path fill="none" stroke="#FDBB58" stroke-width="0.4252" d="M456.891,471.682c0.222,1.995,0.338,3.997,0.288,6.01"/>
	<path fill="none" stroke="#FDBB58" stroke-width="0.4252" d="M450.595,474.255c0,1.919,0,3.817,0,5.733"/>
	<path fill="none" stroke="#FDBB58" stroke-width="0.4252" d="M445.722,475.414c0.011,2.097-2.39,2.56-3.23,4.196
		c-0.492,0.98-0.229,2.099-0.78,2.959"/>
	<path fill="none" stroke="#FDBB58" stroke-width="0.4252" d="M437.115,478.562c0.087,2.105-1.527,6.148-2.292,6.585"/>
	<path fill="none" stroke="#FDBB58" stroke-width="0.4252" d="M99.457,264.373l-1.973,78.807c0,0,1.722,31.711,6.875,43.556
		c5.163,11.85,30.382,56.934,43,67.45c12.601,10.517,73.179,38.783,73.179,38.783l79.726,37.012l10.869,5.044l37.808,17.554
		l-0.765,9.959l-18.345-13.763l-18.709-13.732"/>
	<path fill="none" stroke="#FDBB58" stroke-width="0.4252" d="M310.406,520.245c0,0,26.911-35.286,32.286-42.467
		c5.388-7.182,36.194-31.103,36.194-31.103"/>
	<path fill="none" stroke="#FDBB58" stroke-width="0.4252" d="M495.008,259.587c0,0,6.554,73.333-2.38,110.332
		c-10.694,44.331-24.842,64.777-48.907,87.147c-24.079,22.347-133.306,63.18-133.306,63.18l-36.211,18.567l-31.098,16.978
		l0.648,8.596c0,0,46.326-33.406,52.068-37.109"/>
	<g>
		<g>
			<path fill="none" d="M348.398,558.654c-1.558-3.96-7.502-6.17-11.043-7.723c-2.195-1.095-4.186-1.981-6.167-3.067
				c-2.205-1.558-3.743-3.754-6.392-4.415"/>
			<path fill="#FDBB58" d="M348.487,555.409c-2.032-3.977-6.21-5.715-10.104-7.406c-2.448-1.054-4.835-2.271-7.193-3.511
				c-2.379-1.245-3.753-3.452-6.392-4.414c0.23,0.092-1.134,6.33,0,6.744c2.146,0.784,3.636,2.107,5.335,3.591
				c2.021,1.766,4.836,2.723,7.224,3.894c4.052,1.975,8.753,3.278,10.946,7.604C347.886,561.08,349.337,557.083,348.487,555.409
				L348.487,555.409z"/>
		</g>
	</g>
	<g>
		<g>
			<path fill="none" d="M244.258,558.229c6.304-1.438,8.886-5.734,14.32-8.884c2.302-1.148,5.173-1.443,7.455-2.871
				c1.73-1.136,5.24-4.434,6.963-5"/>
			<path fill="#FDBB58" d="M244.258,562.449c6.236-1.795,9.941-7.04,15.762-9.488c2.349-0.99,4.719-1.336,6.847-2.88
				c2.049-1.479,3.829-3.298,6.12-4.399c1.559-0.739-0.513-8.177,0-8.421c-1.896,0.898-3.49,2.296-5.126,3.609
				c-2.396,1.93-4.949,2.722-7.84,3.667c-5.945,1.918-9.544,7.701-15.762,9.482C242.953,554.395,244.374,562.405,244.258,562.449
				L244.258,562.449z"/>
		</g>
	</g>
	<path fill="#379225" stroke="#FDBB58" stroke-width="0.4252" d="M134.191,227.528c0,0,7.853,30.457,1.723,61.647
		c-6.142,31.178-28.004,47.147-28.004,47.147s-4.419-24.802,0-40.762c4.429-15.962,11.052-24.318,16.94-38.557
		C130.747,242.756,134.191,227.528,134.191,227.528z"/>
	<path fill="none" stroke="#FDBB58" stroke-width="0.4252" d="M134.325,233.337c0.223,24.905-5.337,49.45-14.089,72.628
		c-2.494,6.605-5.278,13.123-8.324,19.499c-3.685,7.702-9.62,18.327-14.728,25.208"/>
	<path fill="none" stroke="#FDBB58" stroke-width="0.4252" d="M130.411,287.608c-1.975,1.227-3.56,3.109-5.165,4.666"/>
	<path fill="none" stroke="#FDBB58" stroke-width="0.4252" d="M128.428,295.222c-2.477-0.227-5.531,0.446-5.395,3.439"/>
	<path fill="none" stroke="#FDBB58" stroke-width="0.4252" d="M125.489,303.819c-1.055,1.18-2.591,1.721-4.167,1.466"/>
	<path fill="#379225" stroke="#FDBB58" stroke-width="0.4252" d="M99.11,149.253c-0.483-0.246,14.988,23.221,16.94,51.954
		c0.985,33.766-17.193,66.558-17.193,66.558s-11.535-30.873-11.052-54.824c0.493-23.951,5.163-31.597,6.875-39.979
		c1.721-8.387,3.936-23.945,3.936-23.945"/>
	<g>
		<path fill="#379225" stroke="#FDBB58" stroke-width="0.4252" d="M81.366,255.665c6.595,16.211,7.591,65.84,7.591,65.84
			l9.118,28.099c0,0-3.298-12.405-9.36-26.832c-16.456-18.746-24.425-41.299-26.341-49.382c-6.014-19.106-2.736-58.409-1.604-69.935
			c0.193-2.07,0.34-3.244,0.34-3.244S74.781,239.47,81.366,255.665z"/>
		<path fill="#379225" stroke="#FDBB58" stroke-width="0.4252" d="M62.374,203.256c0,0-1.778,30.129,5.562,61.281
			c11.4,45.829,21.775,55.71,21.775,55.71"/>
		<path fill="#379225" stroke="#FDBB58" stroke-width="0.4252" d="M73.757,269.095c0.057,1.552-1.646,3.584-2.272,4.304"/>
		<path fill="#379225" stroke="#FDBB58" stroke-width="0.4252" d="M76.551,276.43c-0.387,1.557-1.48,3.99-2.535,5.318"/>
		<path fill="#379225" stroke="#FDBB58" stroke-width="0.4252" d="M79.587,285.55c-0.571,1.952-2.109,4.268-2.775,6.081"/>
		<path fill="#379225" stroke="#FDBB58" stroke-width="0.4252" d="M82.372,293.4c-0.812,2.04-3.172,2.616-3.296,5.318"/>
	</g>
	<path fill="none" stroke="#FDBB58" stroke-width="0.4252" d="M98.723,149.969c7.117,8.595-0.252,115.907-0.252,115.907"/>
	<path fill="none" stroke="#FDBB58" stroke-width="0.4252" d="M106.091,189.254c0,3.598,0.183,6.413-3.202,8.114"/>
	<path fill="none" stroke="#FDBB58" stroke-width="0.4252" d="M109.776,197.368c-2.718,1.407-5.212,3.869-7.367,5.651"/>
	<path fill="none" stroke="#FDBB58" stroke-width="0.4252" d="M110.016,203.499c-0.802,1.324-3.153,1.798-4.35,2.958
		c-2.959,2.881-2.728,5.483-3.21,9.684c-0.059-0.28-0.077-0.575-0.04-0.86"/>
	<path fill="none" stroke="#FDBB58" stroke-width="0.4252" d="M109.272,210.14c-1.198,2.09-3.315,4.337-4.709,6.388
		c-0.859,1.267-3.345,3.196-3.396,4.177"/>
	<path fill="none" stroke="#FDBB58" stroke-width="0.4252" d="M122.297,310.936c-0.715,0.676-1.837,0.527-2.948,0.736"/>
	<path fill="none" stroke="#D3A973" stroke-width="0.4252" d="M119.348,317.569c-0.772,0.575-1.665,0.865-2.698,0.982"/>
</g>
<g id="Lager_2">
	<g>
		<path fill="#FDBB58" d="M148.307,89.055l-10.315-21.408l-13.761-25.594l29.424-9.941l-7.262,32.872l5.349,2.278l20.636-23.686
			l16.814,43.566L155.57,81.8l-3.063,3.819c0,0,19.106,11.839,36.686,10.316c17.589-1.532,26.756-19.484,26.756-19.484
			s-12.301-3.945-14.139-17.58c-1.914-14.135,16.43-21.403,16.43-21.403s21.407-0.386,22.172,17.575
			c0.677,16.042-7.64,17.574-7.64,17.574s10.318,9.182,30.575,9.182c20.248,0,29.038-16.816,29.038-16.816l-6.121-4.584
			l-29.802,17.576V29.823l29.045,16.812l3.067-3.824L271.74,13h47.389l-14.521,29.053l2.279,3.051l30.575-16.052v47.003
			L307.65,59.626l-6.864,5.347c0,0,10.316,15.666,27.511,16.816c17.19,1.146,33.242-8.794,33.242-8.794s-9.166-5.744-8.024-17.198
			c1.827-18.27,22.161-17.578,22.161-17.578s18.72,4.583,16.053,22.919c-1.143,10.705-14.515,13.766-14.515,13.766
			s8.778,19.484,28.266,21.398c19.492,1.91,35.534-9.93,35.534-9.93l-2.282-4.97l-34.026,5.729l15.675-45.475l21.784,24.84
			l5.349-1.533l-6.498-33.249l29.82,9.941l-14.9,26.368l-9.564,21.021l-11.071,29.426l-0.772,246.865
			c0,0-1.525,15.675-11.457,29.812c-9.166,14.904-37.461,30.958-55.794,38.603c-7.64,3.808-71.09,30.186-71.09,30.186
			l-75.652-33.246c0,0-39.365-21.015-47.39-30.576c-8.026-9.549-14.138-25.981-14.138-37.827c0-7.267-0.773-246.112-0.773-246.112
			L148.307,89.055z"/>
	</g>
</g>
<g id="Lager_3">
	<path fill="#C1131E" d="M141.433,79.874c1.528,3.07-4.206-13.751-4.206-13.751s13.381-3.07,17.955,6.118
		c4.583,9.172-7.261,17.574-7.261,17.574S139.906,76.822,141.433,79.874z"/>
	<path fill="#C1131E" d="M452.24,79.941c-1.491,3.041,4.127-13.692,4.127-13.692s-12.85-3.239-17.328,5.874
		c-4.467,9.1,6.875,17.671,6.875,17.671S453.718,76.915,452.24,79.941z"/>
	<path fill="#C1131E" d="M297.159,40.516c7.067,0,12.804,5.733,12.804,12.805c0,7.069-5.736,12.802-12.804,12.802
		s-12.803-5.732-12.803-12.802C284.357,46.249,290.092,40.516,297.159,40.516z"/>
	<path fill="none" stroke="#C1131E" stroke-width="4" d="M155.58,110.077c0,0,91.328-18.735,141.764-17.961
		c50.456,0.769,140.642,17.961,140.642,17.961"/>
	<path fill="none" stroke="#C1131E" stroke-width="4" d="M159.012,116.958c0,0,90.188-18.726,140.631-17.962
		c50.438,0.764,135.652,16.81,135.652,16.81"/>
	<polygon fill="#C0131E" points="158.625,121.917 186.531,121.53 158.625,129.947 	"/>
	<polyline fill="#C0131E" points="435.51,129.681 435.49,121.66 407.595,121.342 	"/>
	<path fill="none" stroke="#082F67" stroke-width="4" d="M158.625,134.53c0,0,82.143-13.375,138.332-13.375
		c58.095,0,139.096,13.375,139.096,13.375"/>
	<polygon fill="#C0131E" points="296.957,104.341 319.506,111.212 296.957,116.57 276.322,111.212 	"/>
	<polygon fill="#379225" points="201.819,112.271 202.205,123.068 239.645,119.632 239.248,108.539 	"/>
	<polygon fill="#379225" points="392.375,111.894 391.738,123.251 354.007,119.894 354.575,108.539 	"/>
	<path fill="#082F67" d="M167.038,143.513c0,0,61.333-14.329,130.121-13.753c68.779,0.575,128.971,13.179,128.971,13.179
		s0.581,210.379-0.568,219.546c-1.15,9.17-2.872,13.188-9.748,25.794c-6.873,12.603-31.705,27.131-31.705,27.131l-86.949,37.07
		l-43-17.197l170.821-290.821L167.028,288.154L167.038,143.513z"/>
	<path fill="#C1131E" d="M364.219,178.474c0,0,1.537,5.358,10.703,15.288c9.187,9.93,14.146,10.317,14.146,10.317l35.535-59.99
		L364.219,178.474z"/>
	<g>
		<path fill="none" stroke="#C1131E" stroke-width="4" d="M246.522,423.818l-13.374-12.612c0,0-10.317-11.084-19.504-11.848
			c-9.167-0.764-16.429,0-16.429,0"/>
		<path fill="none" stroke="#C1131E" stroke-width="4" d="M197.99,384.458c-5.02,4.81-12.638,2.739-16.101-2.775
			c-2.861-4.575-2.774-12.377,1.664-15.476c12.376-8.607,21.824,13.469,26.746,20.547c2.04,2.938,4.013,6.583,6.411,9.268
			c2.505,2.798,5.599,4.989,8.024,7.928"/>
		<path fill="none" stroke="#C1131E" stroke-width="4" d="M236.58,382.94c2.698,6.459,7.396,8.368,13.76,9.539
			c6.575,1.209,13.45,0.812,19.106-2.673c10.027-6.169,12.551-21.142,8.489-31.79c-1.295-3.413-4.67-9.107-12.317-13.284
			c-6.596-3.613-14.359-2.041-20.635-0.794c-16.893,3.36-22.568,21.637-22.928,29.835c-0.764,17.556,4.584,26.35,6.122,32.843"/>
		<path fill="none" stroke="#C1131E" stroke-width="4" d="M234.773,348.424c9.08-2.278,21.562-0.02,25.604,8.23
			c4.41,9.002-2.319,17.128-11.854,18.583"/>
		<path fill="none" stroke="#C1131E" stroke-width="4" d="M255.794,393.526c-3.791,1.636-11.644,1.458-12.706,6.786
			c-2.012,10.027,8.306,8.881,9.64,5.831"/>
		<path fill="none" stroke="#C1131E" stroke-width="4" d="M181.174,349.682c-15.626-0.058-9.475-25,5.823-20.354
			c6.807,2.068,8.538,8.828,9.068,15.005c0.532,6.339,1.48,12.982,2.794,19.011c0.812,3.786,1.385,8.219,3.819,11.279"/>
		<path fill="none" stroke="#C1131E" stroke-width="4" d="M189.2,309.554c-1.81,2.213-6.054,4.335-9.178,3.054
			c-3.287-1.324-5.288-4.998-5.434-8.026c-0.475-10.031,14.426-12.923,19.773-11.468c6.304,1.721,10.026,6.898,10.317,13.181
			c0.339,7.386-2.108,12.405-4.487,18.932c-2.251,6.169-4.195,11.991-4.195,18.71"/>
		<path fill="none" stroke="#C1131E" stroke-width="4" d="M230.47,285.094c-7,1.097-13.189-6.01-9.477-12.991
			c2.795-5.255,7.696-7.258,12.918-7.068c7.734,0.274,11.459,6.594,10.597,12.614c-0.929,6.557-4.013,10.594-11.758,17.007
			c-4.129,3.429-20.346,4.488-29.039,21.014"/>
		<path fill="none" stroke="#C1131E" stroke-width="4" d="M209.265,339.268c4.156-4.734,12.607-5.734,15.759,0.285
			c2.971,5.671,2.874,12.614,1.239,18.914"/>
		<path fill="none" stroke="#C1131E" stroke-width="4" d="M227.308,297.423c3.916-0.813,8.896-3.723,22.907-4.299
			c14.35-0.585,26.407,5.942,31.136,15.723c4.729,9.787,7.251,20.18,7.602,23.27c0.946,8.704-8.529,9.617-14.582,7.417
			c-0.089-0.265-0.1-0.556-0.05-0.831"/>
		<path fill="none" stroke="#C1131E" stroke-width="4" d="M295.535,316.622c3.025-1.219,9.233-1.993,11.544,0.575
			c3.019,3.363,2.351,10.562-0.076,12.038c-16.911,10.318-23.042-12.103-25.712-19.673"/>
		<path fill="none" stroke="#C1131E" stroke-width="4" d="M280.344,307.75c-0.291-2.021,3.385,11.159-2.012,17.762
			c-6.015,7.359-18.081,8.171-20.633,7.17"/>
		<path fill="none" stroke="#C1131E" stroke-width="4" d="M227.8,297.321c28.661-1.137,31.31,21.655,23.595,30.753
			c-3.163,3.749-11.894,4.1-14.899,2.881c-13.48-5.443-10.909-18.849-10.909-20.919"/>
		<path fill="none" stroke="#C1131E" stroke-width="4" d="M282.346,285.379c-1.062-2.307-0.492-9.829,5.155-12.323
			c5.163-2.277,10.164-1.389,13.478,1.643c3.887,3.554,5.851,8.64,4.876,13.543c-1.443,7.168-4.662,10.515-8.317,13.763
			c-3.434,3.061-16.042,3.438-20.625,0"/>
		<path fill="none" stroke="#C1131E" stroke-width="4" d="M278.43,304.007c1.624,0.15,10.521,4.027,24.463,1.919
			c2.777-0.425,12.6-3.355,18.148-11.468c4.962-7.257,6.247-15.892,6.742-17.355c0.753-2.269,0.521-5.764,4.922-10.169
			c2.357-2.364,7.125-4.269,10.499-3.603c3.067,0.591,3.818,4.493,3.829,7.249"/>
		<path fill="none" stroke="#C1131E" stroke-width="4" d="M288.372,261.738c-0.273-2.181,1.004-14.19,12.606-16.202
			c11.826-2.039,16.952,2.664,20.626,5.981c2.832,2.549,3.771,6.28,4.582,9.892c1.711,7.635,0.862,13.218,0.862,18.388"/>
		<path fill="none" stroke="#C1131E" stroke-width="4" d="M308.862,268.332c7.308-4.872,12.357,1.436,14.619,7.305
			c1.527,3.961,0.435,10.308,0.435,14.19"/>
		<path fill="none" stroke="#C1131E" stroke-width="4" d="M302.893,219.742c-0.975,4.546-0.067,7.994,2.254,11.903
			c1.238,2.089,2.901,3.714,4.399,5.697c1.237,1.633,2.773,2.91,4.273,4.321c4.65,4.341,9.42,9.539,11.604,15.152"/>
		<path fill="none" stroke="#C1131E" stroke-width="4" d="M246.522,257.013c12.764,4.009,25.274-2.862,36.113-12.753
			c8.521-7.794,27.086-4.347,35.914,2.853c1.809,1.463,3.617,3.92,4.776,5.892"/>
		<path fill="none" stroke="#C1131E" stroke-width="4" d="M350.989,238.951c2.013-7.594-3.22-13.266-5.868-15.345
			c-9.029-7.019-25.431,2.012-21.494,22.942c2.584,13.744,1.81,10.031,2.282,10.891"/>
		<path fill="none" stroke="#C1131E" stroke-width="4" d="M361.307,192.813c1.297,8.592-4.949,12.058-8.035,12.852
			c-3.578,0.897-11.882-0.673-19.34,2.334c-19.502,7.875-10.965,34.728-11.042,34.399"/>
		<path fill="none" stroke="#C1131E" stroke-width="4" d="M382.521,209.425c-1.003,3.588-4.91,5.459-6.593,5.875
			c-7.649,1.91-13.473-1.716-15.057-1.716"/>
		<path fill="none" stroke="#C1131E" stroke-width="4" d="M342.635,241.538c0,3.27,5.444,6.304,7.785,6.304
			c9.34,0,16.04-7.373,16.899-16.337c2.188-22.562-21.619-24.84-22.347-25.207"/>
	</g>
</g>
</svg>
